<svg width="225" height="225" xmlns="http://www.w3.org/2000/svg">

 <g>
  <title>Layer 1</title>
  <path id="svg_5" d="m133.5,61.5" opacity="NaN" stroke-dasharray="5,5" stroke="#000" fill="none"/>
  <path id="svg_6" d="m64.5,77.5" opacity="NaN" stroke-dasharray="5,5" stroke="#000" fill="none"/>
  <path d="m146.5,47.5c0,-1 -1,-3 -2,-5c-1,-2 -1.69255,-3.18601 -3,-5c-0.8269,-1.14727 -2.07613,-2.61732 -3,-3c-1.30656,-0.54119 -3,-2 -4,-2c-3,0 -6,0 -8,0c-2,0 -5.186,1.69255 -7,3c-2.29454,1.65381 -3,3 -4,5c-1,2 -1,2 -1,3c0,1 0,2 0,3c0,2 0,4 0,5c0,1 0,2 0,2c0,0 0.12234,-0.066 -1,-2c-1.80972,-3.11848 -4.55819,-5.51928 -8,-8c-1.814,-1.30745 -3.82375,-2.48626 -6,-3c-0.97325,-0.22975 -4.87856,-0.50654 -8,0c-2.96127,0.48055 -7.82375,2.48626 -10,3c-0.97325,0.22975 -3.07612,1.61732 -4,2c-1.30656,0.54119 -1,1 -1,2c0,0 0,1 0,2c0,1 -0.29289,2.29289 -1,3c-0.70711,0.70711 0.4588,1.69344 1,3c0.38268,0.92388 -0.30656,3.54119 1,3c0.92388,-0.38268 -1,-1 -3,-1c-3,0 -5,0 -11,0c-1,0 -3.87856,0.49346 -7,1c-1.97417,0.32037 -4,1 -6,3c-2,2 -3,3 -5,5c-1,1 -1.70711,1.29289 -1,2c0.70711,0.70711 1,1 2,2c0,0 1,1 1,1c1,1 1,1 1,1c0,0 0,1 0,1c0,0 0,0 0,1c0,0 -0.05132,0.68377 -1,1c-4.74342,1.58114 -6.88152,5.19028 -10,7c-1.934,1.12234 -3.07612,1.61732 -4,2c-1.30656,0.5412 -1,1 -1,2c0,0 0,0 0,0c0,2 -1,3 -1,4c0,0 0,1 0,2c0,1 1,2 3,2c0,0 2,0 3,0c1,0 2,0 2,0c1,0 1,0 1,0c1,0 1,0 1,1c0,0 0,1 0,1c0,2 -1.34619,4.70546 -3,7c-1.30745,1.814 -3.1731,4.85273 -4,6c-1.30745,1.814 -1,2 -2,3c0,0 0,0 0,1c0,0 -0.76537,1.15224 0,3c0.54119,1.30656 2,3 4,5c1,1 2,2 5,3c3,1 4.82375,2.48626 7,3c1.9465,0.4595 3,0 4,0c1,0 1,1 1,1c0,0 0,1 0,2c0,0 -1.1731,1.85274 -2,3c-1.30745,1.814 -3,4 -4,5c-2,2 -2.07612,2.61731 -3,3c-1.30656,0.5412 -1,2 -1,2c-1,2 -2,3 -2,4c0,1 0,1 0,1c0,1 -0.45951,1.0535 0,3c0.51374,2.17625 3,4 4,5c1,1 2,2 2,2c1,0 1,0 2,0c1,0 1,0 2,0c1,0 1,0 1,0c0,0 0,1 0,2c0,0 0,1 0,3c0,2 0,4 0,8c0,2 0,3 0,5c0,1 1.45881,0.69344 2,2c0.38268,0.92387 1,2 2,3c0,0 2,0 4,0c2,0 5.31001,0.66251 8,-1c2.40601,-1.487 4.82443,-2.09789 6,-4c0.52573,-0.85065 1,-1 2,-1c0,0 1,0 1,0c0,0 1,0 1,0c0,0 1,0 2,1c1,1 1,1 2,1c1,0 1,1 1,1c1,1 2.85273,2.1731 4,3c1.814,1.30745 3.07612,1.61731 4,2c1.30656,0.5412 2,1 3,1c0,0 1,0 2,0c0,0 1,0 1,0c0,-1 0.61732,-2.07613 1,-3c1.62359,-3.91969 3.77025,-5.02675 4,-6c0.51374,-2.17625 1,-3 2,-3c0,0 1,-1 1,-1c0,0 1.38687,1.9176 4,3c0.92388,0.38269 3,1 5,2c6,3 7.86829,5.28859 12,7c2.92157,1.21014 6.186,2.69255 8,4c1.14726,0.8269 3,2 4,2c2,0 3.32367,0.47984 5,-1c2.703,-2.38617 2.1731,-3.85274 3,-5c1.30745,-1.814 1.4588,-2.69344 2,-4c0.76537,-1.84776 0,-3 0,-5c0,-1 0,-1 0,-2c0,0 1.07613,0.38269 2,0c1.30656,-0.5412 2.01291,-1.16019 3,-1c3.12144,0.50655 5,1 7,1c1,0 1.29289,0.29289 2,1c1.41422,1.41422 4.01498,0.75563 6,1c4.09221,0.50377 6,1 8,1c0,0 1,0 1,0c1,-1 2.4588,-1.69344 3,-3c1.14806,-2.77164 0,-4 0,-6c0,-1 0.48625,-2.82375 1,-5c0.4595,-1.9465 0,-3 0,-5c0,-1 -1,-2 -1,-2c0,-1 0,-1 0,-1c0,0 1,0 1,0c1,0 3,0 4,-1c1,-1 2.15224,-2.23463 4,-3c2.61313,-1.0824 3,-4 4,-5c1,-1 1,-1 1,-3c0,-3 -0.48625,-3.82375 -1,-6c-0.22975,-0.97325 -1.4588,-1.69344 -2,-3c-0.38269,-0.92387 -1,-2 -2,-2c0,0 -1,-1 -2,-2c0,0 -2,-1 -2,-2c0,0 0,0 0,-1c0,0 1,0 1,-1c0,0 0,-2 1,-4c0,0 0,-1 0,-2c0,-1 0.49345,-0.87856 1,-4c0.16019,-0.98709 0,-4 0,-5c0,-1 0,-3 0,-3c0,-1 -0.29289,-2.29289 -1,-3c-0.70711,-0.70711 -2,-1 -2,-1c0,0 -1,0 -1,0c0,0 -1.22975,-0.02675 -1,-1c0.51375,-2.17625 3.61383,-3.297 6,-6c1.47984,-1.67633 3.82443,-2.09789 5,-4c0.52573,-0.85065 1,-1 2,-2c0,0 0,0 0,-2c0,0 0.30745,-1.186 -1,-3c-0.8269,-1.14727 -2.85274,-3.1731 -4,-4c-1.814,-1.30745 -3.186,-0.69255 -5,-2c-2.29454,-1.65381 -3.76108,-2.41589 -7,-4c-2.84073,-1.38935 -4.82375,-2.48626 -7,-3c-0.97325,-0.22975 -1,0 -2,-1c0,0 0,0 0,-1c0,-1 0,-2 0,-3c0,0 0,-1 -1,-2c-1,-1 -1,-2 -1,-2c0,-1 1,-1 1,-2c0,0 0.76537,-0.15224 0,-2c-0.5412,-1.30656 -1,-2 -1,-2c0,-1 0,-1 -1,-1c-1,0 -3,0 -4,-1c0,0 -1,0 -2,0c0,0 -1,0 -1,0c0,0 0,-1 -2,-3c0,0 0,-2 0,-2c0,-1 -0.29289,-0.29289 -1,-1c-0.70711,-0.70711 -1,-1 -1,-1c0,0 0,0 0,0c-1,0 -2,0 -3,0c-1,0 -1,-1 -2,-1c0,0 -1,0 -1,0c-1,0 -1,0 -1,0c0,0 -1,0 -1,0c-1,0 -2,1 -3,1l0,0l-1,1" id="svg_11" fill-opacity="0" stroke-width="5" stroke="#000" fill="none"/>
  <path d="m138.5,79.5c0,0 -1,-1 -1,-1c-1,-1 -1,-1 -1,-2c0,-1 -1,-2 -1,-2c-1,-1 -2,-2 -2,-2c0,-1 -0.29289,-1.29289 -1,-2c-0.70711,-0.70711 -2,-1 -2,-1c-1,-1 -3,-1 -5,-1c0,0 -1,0 -2,0c-1,0 -3.01291,-0.16018 -4,0c-3.12144,0.50654 -4.87856,3.49346 -8,4c-0.98709,0.16018 -2.07612,0.61732 -3,1c-1.30656,0.5412 -2,2 -3,2c0,0 -1,1 -1,1c-2,0 -3.02675,0.77025 -4,1c-2.17625,0.51374 -2.69344,2.4588 -4,3c-0.92388,0.38268 -2,1 -2,1c-1,1 -2,2 -3,3c-1,1 -2.186,1.69255 -4,3c-1.14727,0.8269 -2,2 -2,2c0,0 -1,1 -1,1c-1,1 -2,1 -3,2c-1,1 -2,2 -2,2c0,1 0,1 0,1c0,1 -0.14935,0.47427 -1,1c-1.90211,1.17557 -2.69255,3.186 -4,5c-0.8269,1.14727 -1,2 -1,2c0,1 -1,2 -1,2c0,0 0,1 0,1c0,0 0,1 -1,3c-1,2 -2,3 -2,5c0,0 0,1 0,2c0,0 0.22975,0.02675 0,1c-0.51374,2.17625 -1,3 -2,4c0,0 0,1 0,2c0,2 0,3 0,4c0,2 0,4 0,4c0,1 0,2 0,2c0,0 0,1 0,1c0,2 0,4 0,5c0,0 0,1 0,1c0,1 0,2 1,3c1,1 2,2 2,2c1,1 1.186,1.69255 3,3c1.14727,0.8269 3.38687,3.9176 6,5c1.84776,0.76537 4,1 5,2c1,1 2,1 3,1c1,0 1,0 2,0c0,0 1,0 2,0c3,0 5,0 7,0c1,0 3,0 4,0c0,0 0,0 1,0c1,0 2,0 2,0c1,0 0.82375,-1.48625 3,-2c0.97325,-0.22975 0.69344,-0.4588 2,-1c0.92388,-0.38269 1,0 2,0c0,0 1,0 1,0c2,-2 4.85273,-3.1731 6,-4c1.814,-1.30745 3,-1 3,-1c1,-1 1,-1 2,-1c0,0 1,-1 2,-2c1,-1 2,-2 3,-2c0,0 0.85274,-1.1731 2,-2c1.814,-1.30745 3,-2 5,-4c1,-1 1,-1 2,-2c0,0 0,0 0,-1c0,-1 0,-3 0,-4c0,-2 0,-4 0,-5c0,-2 0.30745,-3.186 -1,-5c-0.8269,-1.14727 -0.69255,-3.186 -2,-5c-0.8269,-1.14727 -0.29289,-2.29289 -1,-3c-0.70711,-0.70711 -1.4588,-0.69344 -2,-2c-0.76537,-1.84776 -1,-4 -2,-5c-1,-1 -2.07613,-3.61732 -3,-4c-1.30656,-0.5412 -2.85273,-2.1731 -4,-3c-1.814,-1.30745 -3.69344,-2.4588 -5,-3c-0.92388,-0.38268 -3,0 -6,0c-2,0 -4,0 -7,0c-1,0 -2,0 -2,0c-1,0 -2.85273,0.1731 -4,1c-1.814,1.30745 -4.07612,1.61732 -5,2c-1.30656,0.5412 -2,2 -2,2c0,1 0.38268,1.07612 0,2c-0.5412,1.30656 -1,1 -1,2c0,0 0,0 0,0c0,1 0,1 0,1c0,0 0,0 0,0c0,1 0,1 1,1c1,0 1,0 1,0c0,0 0,0 1,0c0,0 1,0 1,0c1,0 1,0 2,0c0,0 0,0 1,0c0,0 0,0 0,0c1,0 2,0 2,0c2,1 3,1 4,1c0,0 1,0 2,0c0,0 1,0 1,0c0,0 0,0 1,0c0,0 0,0 0,0c0,0 1,-1 1,-1c0,0 1,0 1,0c1,0 2,0 2,0c0,0 0,0 1,0c0,0 0,0 1,0c0,0 0,0 1,0c0,0 0.07612,0.61732 1,1c1.30656,0.5412 1.61732,2.07612 2,3c0.5412,1.30656 1.48626,0.82375 2,3c0.22975,0.97325 1,1 1,2c0,0 0,1 0,1c0,0 0,0 0,1c0,0 0,0 0,0c0,0 0,0 0,1c0,0 0,0 0,0c0,1 0,1 0,2c0,0 0,1 0,1c0,1 0,1 0,1c0,1 0,1 0,1c0,0 0,0 0,1c0,0 0,0 0,0c0,1 0,2 0,2c0,1 0,2 0,2c0,1 0,1 0,2c0,0 0.38268,0.07613 0,1c-0.5412,1.30656 -2,1 -2,2c0,0 0,0 -1,1c-1,1 -0.69344,2.4588 -2,3c-0.92388,0.38269 -2.4588,0.69344 -3,2c-0.38268,0.92387 -1.07612,1.61731 -2,2c-1.30656,0.5412 -1.07612,1.61731 -2,2c-1.30656,0.5412 -2,1 -2,1c0,0 0,0 -1,0c0,0 0,0 -3,1c0,0 -1,1 -2,1c-1,0 -2,0 -2,0c-1,0 -2,0 -3,0c-2,0 -5,0 -6,0c-2,0 -3,0 -3,0c-1,0 -2,0 -3,0c-1,0 -1,0 -1,0c-1,0 -1,-1 -1,-1c0,0 -0.69344,-2.4588 -2,-3c-0.92388,-0.38269 -0.69344,-1.4588 -2,-2c-0.92388,-0.38269 -1,-1 -1,-1c0,-1 0,-1 0,-1c0,-1 0,-1 0,-1c0,-1 -1,-1 -1,-2c0,0 0,0 0,0c0,0 0,-1 0,-1c0,0 0,-1 0,-2c0,0 0,0 0,0c0,0 0,-1 0,-1c0,0 0,0 0,-1c0,0 0,-1 0,-1c0,0 0,0 0,0c0,0 0,-1 0,-1c0,0 0,0 0,0c0,-1 0,-1 0,-2c0,0 0,-1 0,-3c0,-1 0,-2 0,-3c0,-1 0,-1 0,-1c0,-1 0,-1 0,-1c0,0 0,0 0,-1c0,0 0,0 0,0c0,-1 0,-1 0,-1c0,-1 0,-2 0,-2c0,-1 0,-2 0,-2c0,0 0,0 0,-1c0,0 0,0 0,-1c0,-1 1,-2 1,-2c1,-1 1,-1 1,-1c0,0 1.4588,-0.69344 2,-2c0.38268,-0.92388 1,-2 1,-2c0,0 0.61732,-0.07612 1,-1c0.5412,-1.30656 2,-1 4,-3c1,-1 0.69344,-2.4588 2,-3c0.92388,-0.38268 1.29289,-0.29289 2,-1c0.70711,-0.70711 1,-1 1,-1c1,0 1,0 2,0c1,0 1.07612,0.38268 2,0c1.30656,-0.5412 1,-1 1,-1c1,-1 2,-2 3,-3c0,0 1,0 1,0c1,0 2,-1 2,-1c0,-1 1,-2 2,-3c1,-1 1,-1 2,-1c0,0 1,-1 1,-1c0,0 0.69344,-1.4588 2,-2c0.92388,-0.38268 1.07612,0.38268 2,0c1.30656,-0.5412 1.02675,-0.77025 2,-1c2.17625,-0.51374 2,-1 3,-1c1,0 1,0 1,0c1,0 1,0 1,0c0,0 1.29289,0.70711 2,0c0.70711,-0.70711 1,-1 1,-1c1,0 2,0 2,0c1,0 2,0 2,0c1,0 1,0 2,0c1,0 1,0 2,0c1,0 1,0 2,0c1,0 1,0 2,0c0,0 2,1 2,1c0,1 0.69344,2.4588 2,3c0.92387,0.38268 1,0 1,1c0,0 0,1 1,2c1,1 1,1 1,1c0,1 1.4588,0.69344 2,2c0.38269,0.92388 1,1 2,2c1,1 1,2 2,2c0,0 0,0 1,1c1,1 2.69344,1.4588 4,2c0.92387,0.38268 3,0 5,0c1,0 1,0 2,0c1,0 1,0 2,-1c0,0 0,-1 0,-2c0,0 0,-2 0,-2c0,-1 0,-1 0,-4c0,-1 0.4595,-2.0535 0,-4c-0.51375,-2.17625 -1.07613,-2.61732 -2,-3c-1.30656,-0.5412 -1.61731,-2.07612 -2,-3c-0.5412,-1.30656 -1,-1 -2,-2c-1,-1 -1,-1 -1,-1c-1,0 -2,-1 -3,-1c0,0 -1,0 -2,-1c0,0 -1,0 -1,0c-1,0 -2,0 -2,0c-1,0 -0.69344,-0.4588 -2,-1c-0.92387,-0.38268 -1,0 -1,0c0,0 0,0 0,0c-1,0 -1,0 -2,0c0,0 -1,0 -1,0c-1,0 -2,0 -2,0c-1,0 -1,0 -2,0c-1,0 -1,0 -1,0c0,0 -1,0 -1,0c-1,0 -2,0 -2,0l-1,0l0,0l-1,0" id="svg_13" stroke-width="0" stroke="#000" fill="#ff007f"/>
 </g>
</svg>